<svg width="595" height="842" viewBox="0 0 595 842" fill="none" xmlns="http://www.w3.org/2000/svg">
    <rect width="595" height="842" fill="#5533FF"/>
    <path d="M61.24 639L58.48 631.4H49L46.28 639H40.8L50.8 611.32H56.64L67.12 639H61.24ZM53.72 618.36L50.72 626.68H56.76L53.72 618.36ZM73.5928 628.32C73.5928 631.96 75.9528 634.6 79.5128 634.6C83.1528 634.6 85.3928 631.96 85.3928 628.32C85.3928 624.68 83.0328 622 79.4728 622C75.8328 622 73.5928 624.68 73.5928 628.32ZM73.7528 637.28V646H68.3928V617.6H73.4728V619.64C74.5528 618.56 76.6328 617.24 80.0328 617.24C86.5128 617.24 90.7528 621.8 90.7528 628.24C90.7528 634.44 86.5928 639.36 79.7928 639.36C76.9528 639.36 74.8328 638.2 73.7528 637.28ZM97.9803 628.32C97.9803 631.96 100.34 634.6 103.9 634.6C107.54 634.6 109.78 631.96 109.78 628.32C109.78 624.68 107.42 622 103.86 622C100.22 622 97.9803 624.68 97.9803 628.32ZM98.1403 637.28V646H92.7803V617.6H97.8603V619.64C98.9403 618.56 101.02 617.24 104.42 617.24C110.9 617.24 115.14 621.8 115.14 628.24C115.14 634.44 110.98 639.36 104.18 639.36C101.34 639.36 99.2203 638.2 98.1403 637.28ZM126.688 617.52V623.12H125.328C123.248 623.12 122.528 624.12 122.528 625.96V639H117.168V617.6H122.528V619.32C123.288 618.24 124.488 617.52 126.688 617.52ZM132.365 628.32C132.365 631.92 134.765 634.52 138.205 634.52C141.725 634.52 144.005 631.88 144.005 628.32C144.005 624.76 141.605 622.08 138.165 622.08C134.645 622.08 132.365 624.72 132.365 628.32ZM127.005 628.36C127.005 622 131.725 617.24 138.165 617.24C144.925 617.24 149.365 621.96 149.365 628.28C149.365 634.56 144.765 639.36 138.165 639.36C131.485 639.36 127.005 634.68 127.005 628.36ZM150.457 632C150.457 628 153.377 624.96 157.817 624.96C159.737 624.96 161.057 625.48 161.617 625.84V624.76C161.617 622.92 160.817 621.6 158.817 621.6C156.817 621.6 156.217 622.88 156.217 624.08H151.217C151.337 620.04 153.777 617.36 158.817 617.36C164.977 617.36 166.897 620.76 166.897 625.52V639H162.417V637.64C161.817 638.28 160.377 639.28 157.897 639.28C153.617 639.28 150.457 636.44 150.457 632ZM155.497 631.96C155.497 633.76 156.777 635.04 158.617 635.04C160.377 635.04 161.697 633.76 161.697 631.96C161.697 630.16 160.377 628.92 158.577 628.92C156.737 628.92 155.497 630.24 155.497 631.96ZM179.947 634.52C182.107 634.52 183.467 633.56 184.427 632.76L187.387 636.36C186.107 637.72 183.587 639.36 179.907 639.36C173.147 639.36 168.827 634.56 168.827 628.36C168.827 622.12 173.467 617.24 179.867 617.24C183.747 617.24 186.107 618.8 187.387 620.12L184.307 623.84C183.427 623 182.027 622.08 179.907 622.08C176.387 622.08 174.187 624.76 174.187 628.32C174.187 632.16 176.867 634.52 179.947 634.52ZM200.058 639V625.52C200.058 623.44 199.138 622.12 197.178 622.12C195.258 622.12 194.218 623.48 194.218 625.52V639H188.858V609.76H194.218V619.2C194.778 618.56 196.098 617.36 198.738 617.36C203.738 617.36 205.418 620.76 205.418 624.88V639H200.058ZM231.243 619.28C231.243 624.28 227.883 627.4 222.763 627.4H219.723V639H214.203V611.32H222.763C228.283 611.32 231.243 614.16 231.243 619.28ZM222.323 616.12H219.723V622.6H222.323C224.363 622.6 225.483 621.28 225.483 619.32C225.483 617.36 224.363 616.12 222.323 616.12ZM242.518 617.52V623.12H241.158C239.078 623.12 238.358 624.12 238.358 625.96V639H232.998V617.6H238.358V619.32C239.118 618.24 240.318 617.52 242.518 617.52ZM248.195 628.32C248.195 631.92 250.595 634.52 254.035 634.52C257.555 634.52 259.835 631.88 259.835 628.32C259.835 624.76 257.435 622.08 253.995 622.08C250.475 622.08 248.195 624.72 248.195 628.32ZM242.835 628.36C242.835 622 247.555 617.24 253.995 617.24C260.755 617.24 265.195 621.96 265.195 628.28C265.195 634.56 260.595 639.36 253.995 639.36C247.315 639.36 242.835 634.68 242.835 628.36ZM272.402 628.32C272.402 631.96 274.762 634.6 278.322 634.6C281.962 634.6 284.202 631.96 284.202 628.32C284.202 624.68 281.842 622 278.282 622C274.642 622 272.402 624.68 272.402 628.32ZM272.562 637.28V646H267.202V617.6H272.282V619.64C273.362 618.56 275.442 617.24 278.842 617.24C285.322 617.24 289.562 621.8 289.562 628.24C289.562 634.44 285.402 639.36 278.602 639.36C275.762 639.36 273.642 638.2 272.562 637.28ZM296.15 628.32C296.15 631.92 298.55 634.52 301.99 634.52C305.51 634.52 307.79 631.88 307.79 628.32C307.79 624.76 305.39 622.08 301.95 622.08C298.43 622.08 296.15 624.72 296.15 628.32ZM290.79 628.36C290.79 622 295.51 617.24 301.95 617.24C308.71 617.24 313.15 621.96 313.15 628.28C313.15 634.56 308.55 639.36 301.95 639.36C295.27 639.36 290.79 634.68 290.79 628.36ZM319.642 623.28C319.642 624.32 320.242 624.92 321.522 625.28C322.482 625.56 323.362 625.72 324.442 626.04C327.882 627.08 329.562 628.76 329.562 632.64C329.562 637 325.962 639.28 321.762 639.28C315.842 639.28 314.002 635.8 314.122 632.08H319.242C319.242 633.6 319.762 634.96 321.842 634.96C323.242 634.96 324.362 634.28 324.362 633.04C324.362 631.8 323.722 631.24 322.242 630.84C321.082 630.52 320.162 630.32 319.002 629.88C316.042 628.8 314.562 626.8 314.562 623.56C314.562 619.96 317.602 617.32 321.882 617.32C326.402 617.32 329.082 619.6 329.122 624.08H324.202C324.162 622.44 323.402 621.48 321.762 621.48C320.482 621.48 319.642 622.2 319.642 623.28ZM330.778 632C330.778 628 333.698 624.96 338.138 624.96C340.058 624.96 341.378 625.48 341.938 625.84V624.76C341.938 622.92 341.138 621.6 339.138 621.6C337.138 621.6 336.538 622.88 336.538 624.08H331.538C331.658 620.04 334.098 617.36 339.138 617.36C345.298 617.36 347.218 620.76 347.218 625.52V639H342.738V637.64C342.138 638.28 340.698 639.28 338.218 639.28C333.938 639.28 330.778 636.44 330.778 632ZM335.817 631.96C335.817 633.76 337.098 635.04 338.938 635.04C340.698 635.04 342.018 633.76 342.018 631.96C342.018 630.16 340.698 628.92 338.898 628.92C337.058 628.92 335.817 630.24 335.817 631.96ZM355.308 609.76V639H349.948V609.76H355.308Z" fill="white"/>
    <g clip-path="url(#clip0_148_10878)">
        <path fill-rule="evenodd" clip-rule="evenodd" d="M51.5 74.15C53.95 74.15 56.2 72.95 57.25 71.7V73.6H63.7V40H57.3V52.45C56.25 51.2 54 50 51.5 50C44.75 50 41 55.45 41 62.1C41 68.75 44.75 74.15 51.5 74.15ZM52.9 55.55C54.75 55.55 56.4 56.6 57.25 58.25V65.8C56.45 67.5 54.75 68.55 52.9 68.5C49.4 68.5 47.35 65.75 47.35 62.05C47.35 58.35 49.45 55.55 52.9 55.55Z" fill="white"/>
        <rect x="80.7" y="40" width="6.4" height="33.6" fill="white"/>
        <path fill-rule="evenodd" clip-rule="evenodd" d="M104.3 72.35V73.55H110.4V58.85C110.4 53.3 106.85 49.95 100.7 49.95C95.45 49.95 91.65 53.15 91 57.35H97.1C97.6 56.05 98.7 55.2 100.5 55.2C103.05 55.2 104.25 56.8 104.25 58.75V60.45C103.35 59.75 101 59.1 99 59.1C93.95 59.1 90.05 62.1 90.05 66.5C90.05 71.3 94 74 98.65 74C101.2 74 103.5 73.15 104.3 72.35ZM100.1 63.65C102 63.65 103.75 64.4 104.3 65.65V67.35C103.7 68.6 101.95 69.35 100.1 69.35C98.05 69.35 96 68.45 96 66.5C96 64.55 98.1 63.65 100.1 63.65Z" fill="white"/>
        <path fill-rule="evenodd" clip-rule="evenodd" d="M114.35 73.6H120.8V71.7C121.85 72.9 124.1 74.1 126.6 74.1C133.35 74.1 137.1 68.7 137.1 62.05C137.1 55.4 133.3 49.95 126.6 49.95C124.1 49.95 121.85 51.15 120.8 52.4V40H114.35V73.6ZM125.15 68.5C123.3 68.55 121.6 67.5 120.8 65.85V58.25C121.65 56.6 123.3 55.55 125.15 55.55C128.65 55.55 130.7 58.4 130.7 62.05C130.7 65.7 128.6 68.5 125.15 68.5Z" fill="white"/>
        <path d="M144.95 66.75C145.45 68.4 146.9 69.3 148.85 69.3C150.8 69.3 152.1 68.55 152.1 67.05C152.1 66 151.4 65.5 149.8 65.1L145.15 64.05C141.65 63.2 139.15 61.4 139.15 57.55C139.15 53.05 143.2 50.05 148.35 50.05C154.2 50.05 157.4 52.85 158.15 57.2H152.05C151.65 55.9 150.55 54.95 148.45 54.95C146.9 54.95 145.4 55.7 145.4 57.1C145.4 58.05 146 58.55 147.45 58.9L152.2 60C156.25 61 158.35 63.2 158.35 66.7C158.35 71.4 154.25 74.2 148.9 74.2C143.25 74.2 139.3 71.5 138.6 66.8L144.95 66.75Z" fill="white"/>
        <path fill-rule="evenodd" clip-rule="evenodd" d="M71.9503 73.65C69.0505 73.65 67.7 71.3 67.7 68.4C67.7 65.5 71.0505 63.15 73.9503 63.15C76.8494 63.15 78.2 65.5 78.2 68.4C78.2 71.3 74.8494 73.65 71.9503 73.65Z" fill="white"/>
    </g>
    <defs>
        <clipPath id="clip0_148_10878">
            <rect width="118" height="34.5" fill="white" transform="translate(41 40)"/>
        </clipPath>
    </defs>
</svg>
