<svg width="130" height="28" viewBox="0 0 130 28" fill="none" xmlns="http://www.w3.org/2000/svg">
    <path d="M123.595 21.5874V9.8391H125.806V11.7054H125.928C126.142 11.0731 126.52 10.5759 127.06 10.2139C127.606 9.84675 128.223 9.66319 128.911 9.66319C129.054 9.66319 129.222 9.66828 129.416 9.67848C129.615 9.68868 129.77 9.70143 129.882 9.71673V11.9042C129.791 11.8787 129.627 11.8507 129.393 11.8201C129.158 11.7844 128.924 11.7666 128.689 11.7666C128.149 11.7666 127.667 11.8813 127.244 12.1107C126.825 12.3351 126.494 12.6487 126.249 13.0515C126.005 13.4492 125.882 13.9031 125.882 14.413V21.5874H123.595Z" fill="black"/>
    <path d="M116.017 21.8244C114.86 21.8244 113.863 21.5771 113.027 21.0824C112.196 20.5827 111.553 19.8816 111.099 18.9791C110.651 18.0714 110.426 17.0083 110.426 15.7896C110.426 14.5862 110.651 13.5256 111.099 12.6078C111.553 11.69 112.185 10.9735 112.996 10.4585C113.812 9.94353 114.765 9.68603 115.857 9.68603C116.52 9.68603 117.162 9.79566 117.784 10.0149C118.406 10.2342 118.965 10.5784 119.459 11.0475C119.954 11.5166 120.344 12.1259 120.629 12.8755C120.915 13.62 121.058 14.525 121.058 15.5907V16.4015H111.719V14.6882H118.817C118.817 14.0865 118.694 13.5537 118.45 13.0897C118.205 12.6205 117.861 12.2509 117.417 11.9806C116.978 11.7104 116.463 11.5752 115.872 11.5752C115.229 11.5752 114.669 11.7333 114.189 12.0494C113.715 12.3605 113.348 12.7684 113.088 13.2732C112.833 13.7729 112.705 14.316 112.705 14.9024V16.2409C112.705 17.0261 112.843 17.6941 113.118 18.2448C113.399 18.7955 113.789 19.2162 114.289 19.5068C114.788 19.7924 115.372 19.9352 116.04 19.9352C116.474 19.9352 116.869 19.874 117.226 19.7516C117.583 19.6241 117.891 19.4354 118.151 19.1856C118.411 18.9357 118.61 18.6272 118.748 18.2601L120.912 18.6502C120.739 19.2876 120.428 19.8459 119.979 20.3252C119.536 20.7994 118.977 21.1691 118.304 21.4343C117.636 21.6943 116.874 21.8244 116.017 21.8244Z" fill="black"/>
    <path d="M108.55 9.83898V11.6746H102.133V9.83898H108.55ZM103.854 7.0243H106.141V18.1377C106.141 18.5813 106.207 18.9153 106.34 19.1397C106.472 19.3589 106.643 19.5094 106.852 19.591C107.067 19.6674 107.299 19.7057 107.548 19.7057C107.732 19.7057 107.893 19.6929 108.03 19.6674C108.168 19.6419 108.275 19.6215 108.351 19.6062L108.765 21.4955C108.632 21.5464 108.443 21.5974 108.199 21.6484C107.954 21.7045 107.648 21.7351 107.281 21.7402C106.679 21.7504 106.118 21.6433 105.598 21.419C105.078 21.1946 104.657 20.8479 104.336 20.3788C104.015 19.9096 103.854 19.3207 103.854 18.6119V7.0243Z" fill="black"/>
    <path d="M100.322 12.7072L98.2496 13.0744C98.1629 12.8092 98.0252 12.5568 97.8365 12.3171C97.653 12.0775 97.4031 11.8812 97.087 11.7282C96.7708 11.5752 96.3757 11.4987 95.9014 11.4987C95.2539 11.4987 94.7134 11.6441 94.2799 11.9347C93.8465 12.2203 93.6298 12.5899 93.6298 13.0438C93.6298 13.4364 93.7751 13.7525 94.0658 13.9922C94.3564 14.2318 94.8255 14.4282 95.4731 14.5811L97.3394 15.0095C98.4204 15.2593 99.226 15.6443 99.7563 16.1644C100.287 16.6845 100.552 17.3601 100.552 18.1913C100.552 18.8949 100.348 19.5221 99.9399 20.0728C99.5371 20.6184 98.9736 21.0467 98.2496 21.3578C97.5306 21.6688 96.6969 21.8244 95.7485 21.8244C94.4329 21.8244 93.3596 21.5439 92.5284 20.983C91.6973 20.417 91.1874 19.6139 90.9987 18.5737L93.2091 18.2372C93.3468 18.8134 93.6298 19.2493 94.0581 19.5451C94.4864 19.8357 95.0448 19.981 95.7332 19.981C96.4827 19.981 97.0819 19.8255 97.5306 19.5145C97.9793 19.1983 98.2037 18.8134 98.2037 18.3595C98.2037 17.9924 98.066 17.6839 97.7906 17.4341C97.5204 17.1842 97.1048 16.9955 96.5439 16.8681L94.5553 16.4321C93.459 16.1822 92.6482 15.7845 92.123 15.2389C91.6029 14.6933 91.3429 14.0024 91.3429 13.1661C91.3429 12.4727 91.5366 11.8659 91.9242 11.3458C92.3117 10.8257 92.8471 10.4203 93.5304 10.1296C94.2137 9.8339 94.9964 9.68603 95.8785 9.68603C97.1482 9.68603 98.1476 9.96138 98.8767 10.5121C99.6059 11.0577 100.088 11.7894 100.322 12.7072Z" fill="black"/>
    <path d="M81.633 17.6024L81.6177 14.8107H82.0154L86.6964 9.83907H89.4346L84.0959 15.499H83.7364L81.633 17.6024ZM79.5296 21.5873V5.92299H81.8166V21.5873H79.5296ZM86.9488 21.5873L82.742 16.0038L84.3177 14.4053L89.7558 21.5873H86.9488Z" fill="black"/>
    <path d="M72.2578 21.8244C71.1207 21.8244 70.1417 21.5669 69.3207 21.0518C68.5049 20.5317 67.8777 19.8153 67.4392 18.9026C67.0006 17.9899 66.7814 16.9445 66.7814 15.7667C66.7814 14.5735 67.0057 13.5205 67.4544 12.6078C67.9032 11.69 68.5355 10.9735 69.3513 10.4585C70.1672 9.94353 71.1283 9.68603 72.2348 9.68603C73.1272 9.68603 73.9226 9.85175 74.6212 10.1832C75.3198 10.5095 75.8832 10.9684 76.3115 11.5599C76.7449 12.1514 77.0025 12.8423 77.084 13.6327H74.8583C74.7359 13.082 74.4555 12.6078 74.0169 12.2101C73.5835 11.8123 73.0022 11.6135 72.2731 11.6135C71.6357 11.6135 71.0773 11.7817 70.598 12.1183C70.1238 12.4497 69.7541 12.9239 69.489 13.5409C69.2238 14.1528 69.0912 14.8769 69.0912 15.7131C69.0912 16.5698 69.2213 17.3091 69.4813 17.9312C69.7414 18.5533 70.1085 19.0352 70.5827 19.3768C71.062 19.7184 71.6255 19.8893 72.2731 19.8893C72.7065 19.8893 73.0991 19.8102 73.451 19.6522C73.8079 19.489 74.1062 19.257 74.3458 18.9561C74.5906 18.6553 74.7614 18.2933 74.8583 17.87H77.084C77.0025 18.6298 76.7551 19.308 76.3421 19.9046C75.9291 20.5011 75.3758 20.9703 74.6824 21.3119C73.994 21.6535 73.1858 21.8244 72.2578 21.8244Z" fill="black"/>
    <path d="M59.7313 21.8244C58.5738 21.8244 57.5769 21.5771 56.7407 21.0824C55.9095 20.5827 55.267 19.8816 54.8132 18.9791C54.3645 18.0714 54.1401 17.0083 54.1401 15.7896C54.1401 14.5862 54.3645 13.5256 54.8132 12.6078C55.267 11.69 55.8993 10.9735 56.7101 10.4585C57.5259 9.94353 58.4794 9.68603 59.5706 9.68603C60.2335 9.68603 60.876 9.79566 61.4981 10.0149C62.1202 10.2342 62.6785 10.5784 63.1731 11.0475C63.6677 11.5166 64.0578 12.1259 64.3434 12.8755C64.6289 13.62 64.7717 14.525 64.7717 15.5907V16.4015H55.4328V14.6882H62.5307C62.5307 14.0865 62.4083 13.5537 62.1635 13.0897C61.9188 12.6205 61.5746 12.2509 61.131 11.9806C60.6924 11.7104 60.1774 11.5752 59.5859 11.5752C58.9435 11.5752 58.3826 11.7333 57.9032 12.0494C57.429 12.3605 57.0619 12.7684 56.8018 13.2732C56.5469 13.7729 56.4194 14.316 56.4194 14.9024V16.2409C56.4194 17.0261 56.5571 17.6941 56.8324 18.2448C57.1129 18.7955 57.503 19.2162 58.0027 19.5068C58.5024 19.7924 59.0862 19.9352 59.7542 19.9352C60.1876 19.9352 60.5828 19.874 60.9397 19.7516C61.2967 19.6241 61.6052 19.4354 61.8652 19.1856C62.1253 18.9357 62.3241 18.6272 62.4618 18.2601L64.6264 18.6502C64.453 19.2876 64.142 19.8459 63.6932 20.3252C63.2496 20.7994 62.6913 21.1691 62.0182 21.4343C61.3502 21.6943 60.5879 21.8244 59.7313 21.8244Z" fill="black"/>
    <path d="M44.3786 21.5874H39.3076V5.92304H44.5392C46.074 5.92304 47.3922 6.23664 48.4936 6.86382C49.595 7.48591 50.4389 8.38079 51.0252 9.54848C51.6167 10.7111 51.9125 12.1057 51.9125 13.7323C51.9125 15.364 51.6142 16.7662 51.0176 17.939C50.4261 19.1118 49.5695 20.0143 48.4477 20.6466C47.3259 21.2738 45.9695 21.5874 44.3786 21.5874ZM41.671 19.5223H44.2486C45.4418 19.5223 46.4335 19.2979 47.2239 18.8492C48.0142 18.3954 48.6057 17.7401 48.9984 16.8835C49.391 16.0217 49.5873 14.9713 49.5873 13.7323C49.5873 12.5034 49.391 11.4606 48.9984 10.604C48.6108 9.74734 48.0321 9.09721 47.2621 8.65359C46.4922 8.20997 45.5361 7.98817 44.3939 7.98817H41.671V19.5223Z" fill="black"/>
    <path d="M0 5.38462C0 2.41078 2.41077 0 5.38462 0H22.6154C25.5892 0 28 2.41077 28 5.38462V22.6154C28 25.5892 25.5892 28 22.6154 28H5.38462C2.41078 28 0 25.5892 0 22.6154V5.38462Z" fill="#5533FF"/>
    <g clip-path="url(#clip0_137_4945)">
        <mask id="mask0_137_4945" style="mask-type:luminance" maskUnits="userSpaceOnUse" x="5" y="5" width="18" height="18">
            <path d="M22.7068 22.7067L22.7068 5.44962L5.44968 5.44961L5.44968 22.7067L22.7068 22.7067Z" fill="white"/>
        </mask>
        <g mask="url(#mask0_137_4945)">
            <path fill-rule="evenodd" clip-rule="evenodd" d="M20.8085 14.0782C21.8569 14.0782 22.7068 13.2283 22.7068 12.1799L22.7068 7.3479C22.7068 6.29951 21.8569 5.44962 20.8085 5.44962L15.9144 5.44962C14.866 5.44962 14.0162 6.29951 14.0162 7.3479L14.0162 12.1799C14.0162 13.2283 13.1663 14.0782 12.1179 14.0782L7.34796 14.0782C6.29959 14.0782 5.44968 14.9281 5.44968 15.9765L5.44968 20.8084C5.44968 21.8568 6.29959 22.7067 7.34796 22.7067L12.2421 22.7067C13.2904 22.7067 14.1403 21.8568 14.1403 20.8084L14.1403 15.9765C14.1403 14.9281 14.9902 14.0782 16.0386 14.0782L20.8085 14.0782Z" fill="url(#paint0_linear_137_4945)"/>
        </g>
    </g>
    <defs>
        <linearGradient id="paint0_linear_137_4945" x1="14.0782" y1="5.44962" x2="14.0782" y2="22.7067" gradientUnits="userSpaceOnUse">
            <stop stop-color="white" stop-opacity="0.85"/>
            <stop offset="1" stop-color="white" stop-opacity="0.42"/>
        </linearGradient>
        <clipPath id="clip0_137_4945">
            <rect width="17.2571" height="17.2571" fill="white" transform="translate(22.7068 5.44962) rotate(90)"/>
        </clipPath>
    </defs>
</svg>
