<svg width="48" height="14" viewBox="0 0 48 14" fill="none" xmlns="http://www.w3.org/2000/svg">
    <path fill-rule="evenodd" clip-rule="evenodd" d="M4.19994 13.66C5.17994 13.66 6.07994 13.18 6.49994 12.68V13.44H9.07994V0H6.51994V4.98C6.09994 4.48 5.19994 4 4.19994 4C1.49994 4 -6.10352e-05 6.18 -6.10352e-05 8.84C-6.10352e-05 11.5 1.49994 13.66 4.19994 13.66ZM4.75995 6.22002C5.49995 6.22002 6.15995 6.64002 6.49995 7.30002V10.32C6.17995 11 5.49995 11.42 4.75995 11.4C3.35995 11.4 2.53995 10.3 2.53995 8.82002C2.53995 7.34002 3.37995 6.22002 4.75995 6.22002Z" fill="#111111"/>
    <rect x="15.8799" width="2.56" height="13.44" fill="#111111"/>
    <path fill-rule="evenodd" clip-rule="evenodd" d="M25.3199 12.94V13.42H27.7599V7.53998C27.7599 5.31998 26.3399 3.97998 23.8799 3.97998C21.7799 3.97998 20.2599 5.25998 19.9999 6.93998H22.4399C22.6399 6.41998 23.0799 6.07998 23.7999 6.07998C24.8199 6.07998 25.2999 6.71998 25.2999 7.49998V8.17998C24.9399 7.89998 23.9999 7.63998 23.1999 7.63998C21.1799 7.63998 19.6199 8.83998 19.6199 10.6C19.6199 12.52 21.1999 13.6 23.0599 13.6C24.0799 13.6 24.9999 13.26 25.3199 12.94ZM23.64 9.45996C24.4 9.45996 25.1 9.75996 25.32 10.26V10.94C25.08 11.44 24.38 11.74 23.64 11.74C22.82 11.74 22 11.38 22 10.6C22 9.81996 22.84 9.45996 23.64 9.45996Z" fill="#111111"/>
    <path fill-rule="evenodd" clip-rule="evenodd" d="M29.34 13.44H31.92V12.68C32.34 13.16 33.24 13.64 34.24 13.64C36.94 13.64 38.44 11.48 38.44 8.82C38.44 6.16 36.92 3.98 34.24 3.98C33.24 3.98 32.34 4.46 31.92 4.96V0H29.34V13.44ZM33.6599 11.4C32.9199 11.42 32.2399 11 31.9199 10.34V7.30002C32.2599 6.64002 32.9199 6.22002 33.6599 6.22002C35.0599 6.22002 35.8799 7.36002 35.8799 8.82002C35.8799 10.28 35.0399 11.4 33.6599 11.4Z" fill="#111111"/>
    <path d="M41.5799 10.7C41.7799 11.36 42.3599 11.72 43.1399 11.72C43.9199 11.72 44.4399 11.42 44.4399 10.82C44.4399 10.4 44.1599 10.2 43.5199 10.04L41.6599 9.62002C40.2599 9.28002 39.2599 8.56002 39.2599 7.02002C39.2599 5.22002 40.8799 4.02002 42.9399 4.02002C45.2799 4.02002 46.5599 5.14002 46.8599 6.88002H44.4199C44.2599 6.36002 43.8199 5.98002 42.9799 5.98002C42.3599 5.98002 41.7599 6.28002 41.7599 6.84002C41.7599 7.22002 41.9999 7.42002 42.5799 7.56002L44.4799 8.00002C46.0999 8.40002 46.9399 9.28002 46.9399 10.68C46.9399 12.56 45.2999 13.68 43.1599 13.68C40.8999 13.68 39.3199 12.6 39.0399 10.72L41.5799 10.7Z" fill="#111111"/>
    <path fill-rule="evenodd" clip-rule="evenodd" d="M12.3801 13.46C11.2201 13.46 10.6799 12.52 10.6799 11.36C10.6799 10.2 12.0201 9.26001 13.1801 9.26001C14.3397 9.26001 14.8799 10.2 14.8799 11.36C14.8799 12.52 13.5397 13.46 12.3801 13.46Z" fill="#5533FF"/>
</svg>
